# xmcd
#
# Track frame offsets:
#	150
#	15976
#	34614
#	53477
#	69742
#	86340
#	106692
#	125394
#	135243
#	155085
#	173385
#	195177
#	219350
#	234044
#	251509
#	281839
#
# Disc length: 3763 seconds
#
# Revision: 1
# Processed by: cddbd v1.5.1PL2 Copyright (c) Steve Scherf et al.
# Submitted via: audiograbber 1.83.01
#
DISCID=b90eb110
DTITLE=Various Artist - TT-234
DYEAR=1900
DGENRE=Latin
TTITLE0=Juanes - A Dios Le Pido
TTITLE1=Juan Gabriel - Abrazame Muy Fuerte
TTITLE2=Thalia - Alguien Real
TTITLE3=Las Ketchup - Asereje
TTITLE4=Enrique Iglesias - Bailamos
TTITLE5=Carlos Vives - Corazon Espinado
TTITLE6=Juanes - Fotografia
TTITLE7=Richi Valens - La Bamba
TTITLE8=Mana - Mariposa Traicionera
TTITLE9=Jaci Velasquez - No Hace Falta Un Hombre
TTITLE10=Shakira - Que Me Quedes Tu
TTITLE11=India - Seduceme
TTITLE12=Shakira - Suerte
TTITLE13=Shakira - Te Avisa, Te Anuncio
TTITLE14=Frankie - Ya No Es Lqual
TTITLE15=Data Track - Data Track
EXTD=
EXTT0=
EXTT1=
EXTT2=
EXTT3=
EXTT4=
EXTT5=
EXTT6=
EXTT7=
EXTT8=
EXTT9=
EXTT10=
EXTT11=
EXTT12=
EXTT13=
EXTT14=
EXTT15=
PLAYORDER=
